<svg width="18" height="24" viewBox="0 0 18 24" fill="none" xmlns="http://www.w3.org/2000/svg">
<path d="M10.125 14.2909H5.625C5.32663 14.2909 5.04048 14.4116 4.8295 14.6264C4.61853 14.8412 4.5 15.1326 4.5 15.4364C4.5 15.7402 4.61853 16.0315 4.8295 16.2463C5.04048 16.4612 5.32663 16.5818 5.625 16.5818H10.125C10.4234 16.5818 10.7095 16.4612 10.9205 16.2463C11.1315 16.0315 11.25 15.7402 11.25 15.4364C11.25 15.1326 11.1315 14.8412 10.9205 14.6264C10.7095 14.4116 10.4234 14.2909 10.125 14.2909ZM14.625 2.83638H13.2975C13.0654 2.16795 12.6359 1.58898 12.0679 1.17884C11.5 0.768696 10.8213 0.547464 10.125 0.545471H7.875C7.17869 0.547464 6.50002 0.768696 5.93205 1.17884C5.36408 1.58898 4.9346 2.16795 4.7025 2.83638H3.375C2.47989 2.83638 1.62145 3.19843 0.988515 3.84287C0.355579 4.48731 0 5.36136 0 6.27274V20.0182C0 20.9296 0.355579 21.8036 0.988515 22.4481C1.62145 23.0925 2.47989 23.4546 3.375 23.4546H14.625C15.5201 23.4546 16.3786 23.0925 17.0115 22.4481C17.6444 21.8036 18 20.9296 18 20.0182V6.27274C18 5.36136 17.6444 4.48731 17.0115 3.84287C16.3786 3.19843 15.5201 2.83638 14.625 2.83638ZM6.75 3.98184C6.75 3.67804 6.86853 3.38669 7.0795 3.17188C7.29048 2.95706 7.57663 2.83638 7.875 2.83638H10.125C10.4234 2.83638 10.7095 2.95706 10.9205 3.17188C11.1315 3.38669 11.25 3.67804 11.25 3.98184V5.12729H6.75V3.98184ZM15.75 20.0182C15.75 20.322 15.6315 20.6133 15.4205 20.8282C15.2095 21.043 14.9234 21.1637 14.625 21.1637H3.375C3.07663 21.1637 2.79048 21.043 2.5795 20.8282C2.36853 20.6133 2.25 20.322 2.25 20.0182V6.27274C2.25 5.96895 2.36853 5.6776 2.5795 5.46279C2.79048 5.24797 3.07663 5.12729 3.375 5.12729H4.5V6.27274C4.5 6.57654 4.61853 6.86789 4.8295 7.0827C5.04048 7.29752 5.32663 7.4182 5.625 7.4182H12.375C12.6734 7.4182 12.9595 7.29752 13.1705 7.0827C13.3815 6.86789 13.5 6.57654 13.5 6.27274V5.12729H14.625C14.9234 5.12729 15.2095 5.24797 15.4205 5.46279C15.6315 5.6776 15.75 5.96895 15.75 6.27274V20.0182ZM12.375 9.70911H5.625C5.32663 9.70911 5.04048 9.82979 4.8295 10.0446C4.61853 10.2594 4.5 10.5508 4.5 10.8546C4.5 11.1584 4.61853 11.4497 4.8295 11.6645C5.04048 11.8793 5.32663 12 5.625 12H12.375C12.6734 12 12.9595 11.8793 13.1705 11.6645C13.3815 11.4497 13.5 11.1584 13.5 10.8546C13.5 10.5508 13.3815 10.2594 13.1705 10.0446C12.9595 9.82979 12.6734 9.70911 12.375 9.70911Z" fill="white"/>
</svg>
